HIERARCHY
ROOT Hips
{
	OFFSET 0.000000 0.000000 0.000000
	CHANNELS 6 Xposition Yposition Zposition Xrotation Yrotation Zrotation
	JOINT LeftUpLeg_virtual
	{
		OFFSET 0.000000 0.000000 0.000000
		CHANNELS 3 Xrotation Yrotation Zrotation
		JOINT LeftUpLeg
		{
			OFFSET 10.205400 -3.823500 0.155100
			CHANNELS 3 Xrotation Yrotation Zrotation
			JOINT LeftLeg
			{
				OFFSET 0.708757 -12.982077 0.567790
				CHANNELS 3 Xrotation Yrotation Zrotation
				JOINT LeftFoot
				{
					OFFSET -0.708756 -10.717838 -2.184338
					CHANNELS 3 Xrotation Yrotation Zrotation
					JOINT LeftToeBase
					{
						OFFSET 0.108149 -7.191104 7.560241
						CHANNELS 3 Xrotation Yrotation Zrotation
						JOINT LeftToe_End
						{
							OFFSET 0.070230 0.081724 4.490308
							CHANNELS 3 Xrotation Yrotation Zrotation
							End Site
							{
								OFFSET 0 0 0
							}
						}
					}
				}
			}
		}
	}
	JOINT RightUpLeg_virtual
	{
		OFFSET 0.000000 0.000000 0.000000
		CHANNELS 3 Xrotation Yrotation Zrotation
		JOINT RightUpLeg
		{
			OFFSET -10.205400 -3.823500 0.005500
			CHANNELS 3 Xrotation Yrotation Zrotation
			JOINT RightLeg
			{
				OFFSET -0.708756 -12.982134 0.610632
				CHANNELS 3 Xrotation Yrotation Zrotation
				JOINT RightFoot
				{
					OFFSET 0.708754 -10.717769 -1.945823
					CHANNELS 3 Xrotation Yrotation Zrotation
					JOINT RightToeBase
					{
						OFFSET -0.108140 -7.191069 7.372968
						CHANNELS 3 Xrotation Yrotation Zrotation
						JOINT RightToe_End
						{
							OFFSET -0.070227 0.081735 4.479403
							CHANNELS 3 Xrotation Yrotation Zrotation
							End Site
							{
								OFFSET 0 0 0
							}
						}
					}
				}
			}
		}
	}
	JOINT Spine_virtual
	{
		OFFSET 0.000000 0.000000 0.000000
		CHANNELS 3 Xrotation Yrotation Zrotation
		JOINT Spine
		{
			OFFSET 0.000000 6.876099 0.125700
			CHANNELS 3 Xrotation Yrotation Zrotation
			JOINT Spine1
			{
				OFFSET 0.000000 5.730043 0.104720
				CHANNELS 3 Xrotation Yrotation Zrotation
				JOINT Spine1_split
				{
					OFFSET 0.000000 5.730043 0.104720
					CHANNELS 3 Xrotation Yrotation Zrotation
					JOINT Spine2
					{
						OFFSET 0.000000 5.730043 0.104720
						CHANNELS 3 Xrotation Yrotation Zrotation
						JOINT Neck_virtual
						{
							OFFSET 0.000000 0.000000 0.000000
							CHANNELS 3 Xrotation Yrotation Zrotation
							JOINT Neck
							{
								OFFSET 0.000000 10.314075 0.188496
								CHANNELS 3 Xrotation Yrotation Zrotation
								JOINT Head
								{
									OFFSET 0.000000 7.643700 -2.377400
									CHANNELS 3 Xrotation Yrotation Zrotation
									JOINT HeadTop_End
									{
										OFFSET 0.000000 43.788605 -13.619600
										CHANNELS 3 Xrotation Yrotation Zrotation
										End Site
										{
											OFFSET 0 0 0
										}
									}
								}
							}
						}
						JOINT LeftShoulder_virtual
						{
							OFFSET 0.000000 0.000000 0.000000
							CHANNELS 3 Xrotation Yrotation Zrotation
							JOINT LeftShoulder
							{
								OFFSET 2.196100 4.412489 0.087492
								CHANNELS 3 Xrotation Yrotation Zrotation
								JOINT LeftShoulder_split
								{
									OFFSET 2.196100 4.412489 0.087492
									CHANNELS 3 Xrotation Yrotation Zrotation
									JOINT LeftArm
									{
										OFFSET 8.771219 -2.981674 -0.026999
										CHANNELS 3 Xrotation Yrotation Zrotation
										JOINT LeftForeArm
										{
											OFFSET 8.512804 0.000000 -0.000000
											CHANNELS 3 Xrotation Yrotation Zrotation
											JOINT LeftHand
											{
												OFFSET 18.484802 0.000000 -0.000000
												CHANNELS 3 Xrotation Yrotation Zrotation
												End Site
												{
													OFFSET 0 0 0
												}
											}
										}
									}
								}
							}
						}
						JOINT RightShoulder_virtual
						{
							OFFSET 0.000000 0.000000 0.000000
							CHANNELS 3 Xrotation Yrotation Zrotation
							JOINT RightShoulder
							{
								OFFSET -2.196100 4.412496 0.070690
								CHANNELS 3 Xrotation Yrotation Zrotation
								JOINT RightShoulder_split
								{
									OFFSET -2.196100 4.412496 0.070690
									CHANNELS 3 Xrotation Yrotation Zrotation
									JOINT RightArm
									{
										OFFSET -8.771282 -2.981682 -0.094208
										CHANNELS 3 Xrotation Yrotation Zrotation
										JOINT RightForeArm
										{
											OFFSET -8.494598 0.000000 0.000000
											CHANNELS 3 Xrotation Yrotation Zrotation
											JOINT RightHand
											{
												OFFSET -18.483803 0.000000 0.000001
												CHANNELS 3 Xrotation Yrotation Zrotation
												End Site
												{
													OFFSET 0 0 0
												}
											}
										}
									}
								}
							}
						}
					}
				}
			}
		}
	}
}
MOTION
Frames: 8
Frame Time: 0.03333333
3.812478 32.621281 5.933298 0.000000 0.000000 0.000000 -0.921800 9.240898 -4.677647 8.077325 9.915710 11.082860 18.428513 -7.544962 -2.517858 -30.753077 3.469113 -1.232430 -1.314810 -0.696880 -0.912846 0.000000 0.000000 0.000000 -0.232804 7.444009 -4.981374 -22.616855 -7.074936 -2.234459 29.959856 2.669671 3.153233 -10.329596 1.492807 8.767578 3.335295 0.940446 0.124825 0.000000 0.000000 0.000000 -0.256141 7.705527 -4.861560 11.762998 -1.703119 2.975000 0.804371 -1.737563 0.900412 0.803947 -0.988322 0.498263 0.000000 0.000000 0.000000 -2.942671 -1.420482 1.036339 -0.857663 -0.193191 5.308374 -3.888115 0.020855 -4.593041 0.000000 0.000000 0.000000 -3.136058 -1.597985 1.009156 0.828060 -0.970769 -3.046524 -1.402048 -0.569139 -0.128892 -0.933138 -10.399976 -74.761482 10.351090 -12.855867 -3.308217 0.000000 0.000000 0.000000 -3.226198 -1.910954 0.954149 2.492849 -0.419394 8.173689 -2.563673 1.072799 -1.748607 2.130495 10.907903 71.241243 11.181790 19.294789 3.139530 0.000000 0.000000 0.000000 
3.867305 32.733128 6.697008 0.000000 0.000000 0.000000 -0.496707 9.919649 -5.192324 9.622336 9.647349 10.967557 17.273847 -7.909496 -2.198618 -30.728102 3.960818 -1.986863 -2.337239 -0.775782 -1.144664 0.000000 0.000000 0.000000 0.242516 7.969634 -5.532158 -22.424831 -6.553832 -0.521152 24.051741 4.231779 2.959470 -10.628497 1.814620 9.303489 5.176303 -0.395658 -0.103977 0.000000 0.000000 0.000000 0.219687 8.080442 -5.300065 11.715622 -1.858696 3.412034 0.535881 -1.918331 1.005772 0.755975 -0.898343 0.475405 0.000000 0.000000 0.000000 -3.102290 -1.561402 1.145140 -1.049694 -0.336559 5.121537 -4.133459 -0.162214 -5.275621 0.000000 0.000000 0.000000 -3.328785 -1.714272 1.010248 0.837861 -1.074226 -2.993552 -1.340463 -0.316390 0.002741 -1.292608 -10.901919 -74.663407 10.549164 -13.386834 -3.683056 0.000000 0.000000 0.000000 -3.282157 -1.983844 1.065986 2.601177 -1.127394 8.140351 -2.618979 0.861847 -2.004364 2.197803 11.375934 71.165011 10.866177 18.773219 4.020380 0.000000 0.000000 0.000000 
3.911175 32.821217 7.536847 0.000000 0.000000 0.000000 -0.155621 10.475891 -5.630858 11.119754 9.005153 11.193772 16.411961 -8.073088 -1.852729 -30.318752 4.893757 -2.655094 -2.926256 -0.797861 -1.702950 0.000000 0.000000 0.000000 0.535285 8.750561 -6.039619 -22.405534 -5.857773 0.457996 19.461700 5.904077 2.922356 -10.207436 2.284496 9.454876 5.630481 -1.804253 -0.288017 0.000000 0.000000 0.000000 0.601241 8.416489 -5.704348 11.915189 -2.146430 3.704643 0.244092 -2.183989 1.241855 0.538508 -0.637164 0.450908 0.000000 0.000000 0.000000 -3.293361 -1.806274 1.386454 -1.424157 -0.455105 4.760998 -4.483673 -0.469216 -5.855797 0.000000 0.000000 0.000000 -3.568595 -1.920751 1.153560 0.833726 -1.247070 -3.223212 -1.352447 0.084091 -0.019052 -1.358803 -11.532770 -74.362141 10.662659 -13.761915 -4.104125 0.000000 0.000000 0.000000 -3.422321 -2.161246 1.287563 2.679482 -1.746517 7.903242 -2.614439 0.807439 -2.195771 2.408961 11.975630 71.394875 10.467520 18.643473 4.637400 0.000000 0.000000 0.000000 
3.928701 32.834717 8.415627 0.000000 0.000000 0.000000 -0.021385 10.913678 -5.994545 12.762860 8.308854 11.806217 15.735463 -7.948482 -1.493347 -30.231175 6.157345 -3.213796 -2.824510 -0.789062 -2.330323 0.000000 0.000000 0.000000 0.649711 9.662825 -6.462171 -22.713714 -5.212159 0.701994 16.299461 7.228574 3.039728 -9.609654 2.672309 8.658581 5.917675 -3.056859 -0.389271 0.000000 0.000000 0.000000 0.827791 8.609255 -6.058848 12.318881 -2.472423 3.856404 -0.051593 -2.488448 1.540374 0.416410 -0.213524 0.377758 0.000000 0.000000 0.000000 -3.473016 -2.110829 1.678496 -2.001604 -0.583488 4.362879 -4.949690 -0.871173 -6.295591 0.000000 0.000000 0.000000 -3.818469 -2.182218 1.383358 0.815571 -1.425990 -3.651291 -1.417061 0.431554 -0.044985 -1.228448 -12.289964 -73.905748 10.688989 -14.182492 -4.515169 0.000000 0.000000 0.000000 -3.602154 -2.411902 1.544918 2.709536 -2.271339 7.541621 -2.547350 0.871247 -2.233593 2.717505 12.611378 71.870939 9.992259 18.843071 5.040435 0.000000 0.000000 0.000000 
3.900557 32.736847 9.408283 0.000000 0.000000 0.000000 -0.061767 11.405303 -6.262580 14.416783 7.981907 12.731190 15.027441 -7.594913 -1.210526 -30.944442 7.419051 -4.043867 -2.749253 -0.878328 -2.418973 0.000000 0.000000 0.000000 0.688075 10.506611 -6.768605 -23.302695 -4.805849 0.399465 14.877033 8.021886 3.279968 -8.820108 2.844387 6.997610 6.393670 -3.896681 -0.438217 0.000000 0.000000 0.000000 0.846959 8.681406 -6.275114 12.859224 -2.753306 3.912672 -0.334745 -2.767230 1.817512 0.359601 0.446412 0.219949 0.000000 0.000000 0.000000 -3.626054 -2.407942 1.927368 -2.735740 -0.718757 4.057339 -5.470272 -1.299781 -6.591777 0.000000 0.000000 0.000000 -4.037032 -2.430971 1.609975 0.793548 -1.528874 -4.176036 -1.490277 0.456053 -0.054536 -1.038806 -13.082846 -73.392165 10.653025 -14.807469 -4.866027 0.000000 0.000000 0.000000 -3.763361 -2.657153 1.749736 2.709335 -2.718904 7.174455 -2.410358 1.031766 -2.083131 2.989808 13.123860 72.462433 9.468334 19.224918 5.306990 0.000000 0.000000 0.000000 
3.789319 32.539352 10.488306 0.000000 0.000000 0.000000 -0.143175 12.009639 -6.374306 15.885400 8.124006 13.749914 14.590553 -7.267871 -1.021449 -31.782369 8.320881 -5.840994 -4.024096 -1.150979 -1.434284 0.000000 0.000000 0.000000 0.692192 11.427278 -6.908084 -24.052597 -4.710908 -0.195164 15.024502 8.280318 3.617070 -7.413541 2.776624 4.978925 6.571080 -4.211006 -0.528314 0.000000 0.000000 0.000000 0.710793 8.813588 -6.310788 13.426135 -2.920755 3.903188 -0.601652 -2.974110 1.997755 0.457675 1.027092 0.089825 0.000000 0.000000 0.000000 -3.755241 -2.628504 2.056865 -3.526934 -0.875655 3.907088 -5.999522 -1.685868 -6.729320 0.000000 0.000000 0.000000 -4.226609 -2.600941 1.768692 0.773797 -1.461439 -4.669458 -1.565220 0.119637 0.021723 -0.928800 -13.736674 -72.929536 10.599540 -15.695338 -5.117213 0.000000 0.000000 0.000000 -3.884710 -2.840350 1.827974 2.694168 -3.073945 6.881432 -2.275677 1.145023 -1.747343 3.076998 13.476778 73.062103 8.920808 19.615349 5.493220 0.000000 0.000000 0.000000 
3.590406 32.287056 11.651010 0.000000 0.000000 0.000000 -0.321213 12.814553 -6.288962 16.676950 8.667250 14.871671 15.227748 -7.576988 -0.861636 -31.281611 8.849133 -9.584290 -6.862691 -1.642747 0.684892 0.000000 0.000000 0.000000 0.802022 12.340137 -6.846545 -25.010032 -4.911086 -0.764502 16.246433 8.324614 4.059009 -5.268119 2.510692 3.279516 6.286252 -4.051873 -0.672723 0.000000 0.000000 0.000000 0.407843 9.219015 -6.153820 13.945203 -2.963193 3.860256 -0.871534 -3.083856 2.033748 0.745940 1.414153 0.071761 0.000000 0.000000 0.000000 -3.880157 -2.740979 2.049116 -4.303738 -1.056430 3.930692 -6.456720 -1.969233 -6.757737 0.000000 0.000000 0.000000 -4.417535 -2.661699 1.809873 0.776272 -1.215460 -5.037575 -1.566061 -0.466433 0.329170 -0.988062 -14.026654 -72.631405 10.526048 -16.698030 -5.278002 0.000000 0.000000 0.000000 -3.937295 -2.930198 1.759190 2.706913 -3.342168 6.708835 -2.182513 1.142309 -1.273311 2.872391 13.633803 73.548823 8.384447 19.993504 5.629640 0.000000 0.000000 0.000000 
3.293124 32.031174 12.953053 0.000000 0.000000 0.000000 -0.406856 13.722913 -6.049091 16.856138 9.476278 15.657234 17.038921 -7.661410 -0.681333 -30.114936 9.029660 -13.284411 -9.981040 -2.392561 3.053499 0.000000 0.000000 0.000000 0.946282 13.280915 -6.671952 -25.851935 -5.321897 -0.971070 18.114715 8.344023 4.548183 -2.715071 2.176597 2.059865 5.622749 -3.492327 -0.798197 0.000000 0.000000 0.000000 0.000785 9.948719 -5.864981 14.324519 -2.905300 3.863268 -1.153992 -3.117302 1.930515 0.923796 1.446546 0.212441 0.000000 0.000000 0.000000 -4.040747 -2.761032 1.935009 -4.976293 -1.200234 4.085632 -6.762086 -2.030825 -6.717448 0.000000 0.000000 0.000000 -4.616813 -2.617348 1.734089 0.810311 -0.780811 -5.197350 -1.500348 -1.053654 0.672666 -1.177589 -13.842320 -72.586203 10.432752 -17.574881 -5.379563 0.000000 0.000000 0.000000 -3.951197 -2.936040 1.556673 2.762810 -3.519033 6.655624 -2.129261 1.050306 -0.762265 2.406833 13.720228 73.805788 7.889005 20.424964 5.742441 0.000000 0.000000 0.000000 
